# xmcd CD database file
#
# Track frame offsets:
#	150
#	10625
#	22695
#	38590
#	50847
#
# Disc length: 924 seconds
#
# Revision: 0
# Processed by: cddbd v1.5.2PL0 Copyright (c) Steve Scherf et al.
# Submitted via: CDex 1.70beta2
#
DISCID=2b039a05
DTITLE=Dean Fields - Under a Searchlight Moon
DYEAR=2011
DGENRE=Country
TTITLE0=Tongue Like a Hammer
TTITLE1=Forever Never Knowing
TTITLE2=Something's Gotta Give
TTITLE3=Nowhere Fast
TTITLE4=Could've Been
EXTD=YEAR: 2011
EXTT0=
EXTT1=
EXTT2=
EXTT3=
EXTT4=
PLAYORDER=
